<svg width="30" height="40" viewBox="0 0 30 40" fill="none" xmlns="http://www.w3.org/2000/svg">
<path d="M17.1571 30.4276C16.5435 31.0448 15.7251 31.3896 14.8736 31.3896C14.0221 31.3896 13.2037 31.0448 12.5901 30.4276C6.97841 24.743 -0.540734 18.3937 3.12528 9.17454C5.11088 4.18891 9.87052 1 14.8736 1C19.8767 1 24.6381 4.19081 26.6219 9.17454C30.2843 18.3804 22.7833 24.762 17.1571 30.4276Z" stroke="#EFEFFF" stroke-width="2"/>
<path d="M6.20257 31.3896C3.03074 32.1601 1 33.342 1 34.6698C1 36.9887 7.21187 38.87 14.8735 38.87C22.5352 38.87 28.747 36.9887 28.747 34.6698C28.747 33.342 26.7163 32.1601 23.5445 31.3896" stroke="#EFEFFF" stroke-width="2" stroke-linecap="round"/>
<path d="M13.4712 21.7444C12.2198 21.7444 11.1398 21.4358 10.2312 20.8187C9.32266 20.2015 8.61981 19.3787 8.12266 18.3501C7.64266 17.3044 7.40266 16.1558 7.40266 14.9044C7.40266 13.6015 7.67695 12.4358 8.22552 11.4072C8.79124 10.3615 9.58838 9.53865 10.6169 8.93865C11.6627 8.32151 12.9055 8.01294 14.3455 8.01294C15.7684 8.01294 16.9769 8.32151 17.9712 8.93865C18.9827 9.53865 19.7541 10.3615 20.2855 11.4072C20.8341 12.4358 21.1084 13.5844 21.1084 14.8529C21.1084 14.8529 21.1084 20.7243 21.1084 21.0973C21.1084 21.4703 18.1512 21.7145 18.1512 21.0973C18.1512 20.4802 18.1512 18.9929 18.1512 18.9929H18.0998C17.8427 19.4729 17.5084 19.9272 17.097 20.3558C16.6855 20.7672 16.1798 21.1015 15.5798 21.3587C14.9798 21.6158 14.2769 21.7444 13.4712 21.7444ZM14.2684 19.2244C15.0398 19.2244 15.7084 19.0358 16.2741 18.6587C16.8569 18.2644 17.3027 17.7415 17.6112 17.0901C17.9369 16.4215 18.0998 15.6758 18.0998 14.8529C18.0998 14.0301 17.9455 13.3015 17.6369 12.6672C17.3284 12.0158 16.8912 11.5015 16.3255 11.1244C15.7598 10.7301 15.0827 10.5329 14.2941 10.5329C13.4712 10.5329 12.7684 10.7301 12.1855 11.1244C11.6027 11.5015 11.1569 12.0158 10.8484 12.6672C10.5398 13.3187 10.3855 14.0558 10.3855 14.8787C10.3855 15.6844 10.5398 16.4215 10.8484 17.0901C11.1569 17.7415 11.5941 18.2644 12.1598 18.6587C12.7427 19.0358 13.4455 19.2244 14.2684 19.2244Z" fill="#EFEFFF"/>
</svg>
