<svg width="34" height="34" viewBox="0 0 34 34" fill="none" xmlns="http://www.w3.org/2000/svg">
<path d="M26.5044 4.95117C23.8241 3.61809 20.5417 2.83325 17 2.83325C13.4583 2.83325 10.1773 3.61809 7.49558 4.95117C6.18092 5.60567 5.52358 5.93292 4.8875 6.96142C4.25142 7.98992 4.25 8.98584 4.25 10.9763V15.9204C4.25 23.9713 10.6845 28.448 14.4118 30.3648C15.4516 30.8988 15.9701 31.1666 17 31.1666C18.0299 31.1666 18.5484 30.8988 19.5882 30.3648C23.3141 28.4466 29.75 23.9699 29.75 15.919V10.9763C29.75 8.98584 29.75 7.98992 29.1125 6.96142C28.475 5.93292 27.8191 5.60567 26.5044 4.95117Z" stroke="url(#paint0_linear_2001_1449)" stroke-opacity="0.34" stroke-width="1.5" stroke-linecap="round" stroke-linejoin="round"/>
<path d="M17 12.7498V14.1665M15.5833 13.4582C15.5833 13.8339 15.7326 14.1942 15.9983 14.4599C16.2639 14.7256 16.6243 14.8748 17 14.8748C17.3757 14.8748 17.7361 14.7256 18.0017 14.4599C18.2674 14.1942 18.4167 13.8339 18.4167 13.4582C18.4167 13.0824 18.2674 12.7221 18.0017 12.4564C17.7361 12.1908 17.3757 12.0415 17 12.0415C16.6243 12.0415 16.2639 12.1908 15.9983 12.4564C15.7326 12.7221 15.5833 13.0824 15.5833 13.4582Z" stroke="url(#paint1_linear_2001_1449)" stroke-opacity="0.6" stroke-width="1.5" stroke-linecap="round" stroke-linejoin="round"/>
<path d="M18.0625 19.8333H15.9375L17 14.875L18.0625 19.8333Z" stroke="url(#paint2_linear_2001_1449)" stroke-opacity="0.6" stroke-width="1.5" stroke-linecap="round" stroke-linejoin="round"/>
<defs>
<linearGradient id="paint0_linear_2001_1449" x1="17" y1="2.83325" x2="17" y2="31.1666" gradientUnits="userSpaceOnUse">
<stop stop-color="white" stop-opacity="0"/>
<stop offset="0.433023" stop-color="white" stop-opacity="0.433023"/>
<stop offset="1" stop-color="white"/>
</linearGradient>
<linearGradient id="paint1_linear_2001_1449" x1="17" y1="12.0415" x2="17" y2="14.8748" gradientUnits="userSpaceOnUse">
<stop offset="0.433023" stop-color="white" stop-opacity="0.433023"/>
<stop offset="1" stop-color="white"/>
</linearGradient>
<linearGradient id="paint2_linear_2001_1449" x1="17" y1="14.875" x2="17" y2="19.8333" gradientUnits="userSpaceOnUse">
<stop offset="0.433023" stop-color="white" stop-opacity="0.433023"/>
<stop offset="1" stop-color="white"/>
</linearGradient>
</defs>
</svg>
