<svg width="40" height="40" viewBox="0 0 40 40" fill="none" xmlns="http://www.w3.org/2000/svg">
<g clip-path="url(#clip0_2001_1400)">
<mask id="mask0_2001_1400" style="mask-type:luminance" maskUnits="userSpaceOnUse" x="4" y="6" width="33" height="27">
<path d="M8.33333 31.6666C7.83333 31.6666 7.35 31.4166 7.1 30.9833C5.76667 28.7499 5 26.1333 5 23.3333C5 15.0499 11.7167 8.33325 20 8.33325C28.2833 8.33325 35 15.0499 35 23.3333C35 26.1333 34.2333 28.7499 32.9 30.9833C32.65 31.4166 32.1667 31.6666 31.6667 31.6666H8.33333Z" fill="white" fill-opacity="0.3" stroke="white" stroke-width="2" stroke-linecap="round" stroke-linejoin="round"/>
<path d="M24.714 28.0474C22.1095 30.6519 17.8905 30.6519 15.286 28.0474C12.6814 25.4429 12.6814 21.2238 15.286 18.6193C17.8905 16.0148 36.4992 6.83416 36.4992 6.83416C36.4992 6.83416 27.3186 25.4429 24.714 28.0474Z" fill="black"/>
</mask>
<g mask="url(#mask0_2001_1400)">
<path d="M0 0H40V40H0V0Z" fill="url(#paint0_linear_2001_1400)" fill-opacity="0.24"/>
</g>
<path d="M23.0711 24.4982C21.7747 25.7945 19.6534 25.7945 18.357 24.4982C17.0607 23.2018 17.0607 21.0805 18.357 19.7841C19.6534 18.4878 32.4992 10.356 32.4992 10.356C32.4992 10.356 24.3674 23.2018 23.0711 24.4982Z" fill="#EFEFFF"/>
</g>
<defs>
<linearGradient id="paint0_linear_2001_1400" x1="20" y1="0" x2="20" y2="40" gradientUnits="userSpaceOnUse">
<stop stop-color="white" stop-opacity="0"/>
<stop offset="0.433023" stop-color="white" stop-opacity="0.433023"/>
<stop offset="1" stop-color="white"/>
</linearGradient>
<clipPath id="clip0_2001_1400">
<rect width="40" height="40" fill="white"/>
</clipPath>
</defs>
</svg>
